<svg xmlns="http://www.w3.org/2000/svg" width="19.187" height="24.312" viewBox="0 0 19.187 24.312">
  <metadata><?xpacket begin="﻿" id="W5M0MpCehiHzreSzNTczkc9d"?>
<x:xmpmeta xmlns:x="adobe:ns:meta/" x:xmptk="Adobe XMP Core 5.6-c138 79.159824, 2016/09/14-01:09:01        ">
   <rdf:RDF xmlns:rdf="http://www.w3.org/1999/02/22-rdf-syntax-ns#">
      <rdf:Description rdf:about=""/>
   </rdf:RDF>
</x:xmpmeta>
                                                                                                    
                                                                                                    
                                                                                                    
                                                                                                    
                                                                                                    
                                                                                                    
                                                                                                    
                                                                                                    
                                                                                                    
                                                                                                    
                                                                                                    
                                                                                                    
                                                                                                    
                                                                                                    
                                                                                                    
                                                                                                    
                                                                                                    
                                                                                                    
                                                                                                    
                                                                                                    
                           
<?xpacket end="w"?></metadata>
<defs>
    <style>
      .cls-1 {
        fill: #fff;
        fill-rule: evenodd;
      }
    </style>
  </defs>
  <path id="link" class="cls-1" d="M878.361,413.808l-3.5,6.062a2,2,0,0,1-2.732.732l-0.866-.5,1-1.732h0a1,1,0,0,0,1.366-.366l2.5-4.33a1,1,0,0,0-.366-1.366l-3.464-2a1,1,0,0,0-1.366.366l-2.5,4.33a1,1,0,0,0,.366,1.366l-1,1.732-0.866-.5a2,2,0,0,1-.732-2.732l3.5-6.062a2,2,0,0,1,2.732-.732l5.2,3A2,2,0,0,1,878.361,413.808Zm-11.83,10.49a1,1,0,0,1-.366-1.366l4-6.928a1,1,0,0,1,1.732,1l-4,6.928A1,1,0,0,1,866.531,424.3Zm-0.732-2.732h0a1,1,0,0,0-1.366.366l-2.5,4.331a1,1,0,0,0,.366,1.366l3.464,2a1,1,0,0,0,1.366-.365l2.5-4.331a1,1,0,0,0-.366-1.366h0l1-1.732,0.866,0.5a2,2,0,0,1,.732,2.732l-3.5,6.063a2,2,0,0,1-2.732.732l-5.2-3a2,2,0,0,1-.732-2.732l3.5-6.063a2,2,0,0,1,2.732-.732l0.866,0.5Z" transform="translate(-859.438 -407.813)"/>
</svg>
