<svg id="google_" data-name="google +" xmlns="http://www.w3.org/2000/svg" width="44" height="43.34" viewBox="0 0 44 43.34">
  <metadata><?xpacket begin="﻿" id="W5M0MpCehiHzreSzNTczkc9d"?>
<x:xmpmeta xmlns:x="adobe:ns:meta/" x:xmptk="Adobe XMP Core 5.6-c138 79.159824, 2016/09/14-01:09:01        ">
   <rdf:RDF xmlns:rdf="http://www.w3.org/1999/02/22-rdf-syntax-ns#">
      <rdf:Description rdf:about=""/>
   </rdf:RDF>
</x:xmpmeta>
                                                                                                    
                                                                                                    
                                                                                                    
                                                                                                    
                                                                                                    
                                                                                                    
                                                                                                    
                                                                                                    
                                                                                                    
                                                                                                    
                                                                                                    
                                                                                                    
                                                                                                    
                                                                                                    
                                                                                                    
                                                                                                    
                                                                                                    
                                                                                                    
                                                                                                    
                                                                                                    
                           
<?xpacket end="w"?></metadata>
<defs>
    <style>
      .cls-1 {
        fill: #d0422b;
      }

      .cls-2 {
        fill: #b53a22;
        opacity: 0.9;
        mix-blend-mode: multiply;
      }

      .cls-2, .cls-3 {
        fill-rule: evenodd;
      }

      .cls-3 {
        fill: #f4f4f4;
      }
    </style>
  </defs>
  <circle id="Shape_163_copy_5" data-name="Shape 163 copy 5" class="cls-1" cx="22.688" cy="21.265" r="21.313"/>
  <path class="cls-2" d="M1018.48,1232.68l0.86,3.8,3.94,0.9-11.04,10.58-0.72,2.32s-20.021,20.06-23.253,23.22l-6.772-14.83,6.066-9.69c4.17-4.07,10.45-10.21,14.689-14.35,2.67-2.61.63,6.49,0.63,6.49l6.35-6.9,1.85,3.91-2.61,2.99,1.62-1.27Z" transform="translate(-988 -1220.66)"/>
  <path id="g" class="cls-3" d="M1010.23,1233.3a3.14,3.14,0,0,1,.57.44,3.858,3.858,0,0,1,.6.74,4.275,4.275,0,0,1,.5.98,4.389,4.389,0,0,1,.18,1.32,3.692,3.692,0,0,1-.64,2.21,6.651,6.651,0,0,1-.64.75c-0.25.22-.51,0.45-0.79,0.69a4.026,4.026,0,0,0-.45.54,1.164,1.164,0,0,0-.24.73,0.929,0.929,0,0,0,.25.67,5.9,5.9,0,0,0,.41.44l0.91,0.71a8.833,8.833,0,0,1,1.51,1.48,3.637,3.637,0,0,1,.63,2.13,4.252,4.252,0,0,1-1.75,3.33,8.247,8.247,0,0,1-5.23,1.54,6.842,6.842,0,0,1-4.27-1.15,3.087,3.087,0,0,1-1.42-2.52,3.6,3.6,0,0,1,.46-1.59,4.036,4.036,0,0,1,1.64-1.54,8.983,8.983,0,0,1,2.78-.95,21.236,21.236,0,0,1,2.4-.22,6.159,6.159,0,0,1-.53-0.8,1.734,1.734,0,0,1-.27-0.98,1.428,1.428,0,0,1,.11-0.58c0.06-.16.11-0.31,0.16-0.44-0.31.03-.6,0.05-0.87,0.05a4.309,4.309,0,0,1-3.32-1.3,3.767,3.767,0,0,1-1.19-2.75,4.589,4.589,0,0,1,1.69-3.45,6.084,6.084,0,0,1,2.41-1.18,12.112,12.112,0,0,1,2.32-.24h5.43l-1.68.94h-1.67Zm-2.73,7.28a2.593,2.593,0,0,0,1.79-.73,2.474,2.474,0,0,0,.43-1.01,7.623,7.623,0,0,0,.06-0.87,6.523,6.523,0,0,0-.82-3.08,3.546,3.546,0,0,0-1.02-1.21,2.673,2.673,0,0,0-1.48-.46,2.4,2.4,0,0,0-1.84.84,3.059,3.059,0,0,0-.59,1.92,5.851,5.851,0,0,0,.87,2.91,4.127,4.127,0,0,0,1.08,1.2,2.468,2.468,0,0,0,1.52.49h0Zm3.77,7.57a2.455,2.455,0,0,0-.68-1.71,16.1,16.1,0,0,0-2.23-1.69,5.527,5.527,0,0,0-.61-0.03,6.979,6.979,0,0,0-1.07.05,12.774,12.774,0,0,0-1.73.37c-0.13.05-.33,0.12-0.58,0.22a3.794,3.794,0,0,0-.77.47,2.7,2.7,0,0,0-.63.78,2.2,2.2,0,0,0-.3,1.18,2.627,2.627,0,0,0,1.3,2.24,5.833,5.833,0,0,0,3.37.9,4.789,4.789,0,0,0,2.94-.8,2.39,2.39,0,0,0,.99-1.98h0Zm12-10.73h-3.57v3.71h-1.13v-3.71h-3.6v-1.16h3.6v-3.65h1.13v3.65h3.57v1.16Z" transform="translate(-988 -1220.66)"/>
</svg>
