<svg id="linkedin" xmlns="http://www.w3.org/2000/svg" width="42.875" height="43.34" viewBox="0 0 42.875 43.34">
  <metadata><?xpacket begin="﻿" id="W5M0MpCehiHzreSzNTczkc9d"?>
<x:xmpmeta xmlns:x="adobe:ns:meta/" x:xmptk="Adobe XMP Core 5.6-c138 79.159824, 2016/09/14-01:09:01        ">
   <rdf:RDF xmlns:rdf="http://www.w3.org/1999/02/22-rdf-syntax-ns#">
      <rdf:Description rdf:about=""/>
   </rdf:RDF>
</x:xmpmeta>
                                                                                                    
                                                                                                    
                                                                                                    
                                                                                                    
                                                                                                    
                                                                                                    
                                                                                                    
                                                                                                    
                                                                                                    
                                                                                                    
                                                                                                    
                                                                                                    
                                                                                                    
                                                                                                    
                                                                                                    
                                                                                                    
                                                                                                    
                                                                                                    
                                                                                                    
                                                                                                    
                           
<?xpacket end="w"?></metadata>
<defs>
    <style>
      .cls-1 {
        fill: #0083bd;
      }

      .cls-1, .cls-2, .cls-3 {
        fill-rule: evenodd;
      }

      .cls-2 {
        fill: #1d9ac2;
        opacity: 0.9;
        mix-blend-mode: multiply;
      }

      .cls-3 {
        fill: #f4f4f4;
      }
    </style>
  </defs>
  <path id="Shape_163_copy_5" data-name="Shape 163 copy 5" class="cls-1" d="M958.568,1220.65a21.275,21.275,0,1,1-21.314,21.28A21.3,21.3,0,0,1,958.568,1220.65Z" transform="translate(-937 -1220.66)"/>
  <path class="cls-2" d="M964.167,1238.32l3.757,11.53c-7.034,7.01-22.025,22.07-25.621,25.58L927.7,1260.61l6.066-9.69c4.17-4.08,10.45-10.21,14.686-14.35,2.676-2.61,3.582,1.73,3.582,1.73l0.311,2.33,0.838-1.13,2.776-3.71,0.751,0.82Z" transform="translate(-937 -1220.66)"/>
  <path id="Shape_7_copy" data-name="Shape 7 copy" class="cls-3" d="M949.928,1249.76h4.018v-14.03h-4.018v14.03Zm10.046-8.97v8.97h-4.018v-14.03h4.018v0.62a6.245,6.245,0,0,1,5.295.18,5.7,5.7,0,0,1,2.742,4.71v8.52h-4.018v-8.52a1.894,1.894,0,0,0-1.915-1.57C960.962,1239.67,959.974,1239.95,959.974,1240.79Zm-8.036-11.57a2.505,2.505,0,1,0,2.511,2.5A2.5,2.5,0,0,0,951.938,1229.22Z" transform="translate(-937 -1220.66)"/>
</svg>
