<svg xmlns="http://www.w3.org/2000/svg" width="23.281" height="17.218" viewBox="0 0 23.281 17.218">
  <metadata><?xpacket begin="﻿" id="W5M0MpCehiHzreSzNTczkc9d"?>
<x:xmpmeta xmlns:x="adobe:ns:meta/" x:xmptk="Adobe XMP Core 5.6-c138 79.159824, 2016/09/14-01:09:01        ">
   <rdf:RDF xmlns:rdf="http://www.w3.org/1999/02/22-rdf-syntax-ns#">
      <rdf:Description rdf:about=""/>
   </rdf:RDF>
</x:xmpmeta>
                                                                                                    
                                                                                                    
                                                                                                    
                                                                                                    
                                                                                                    
                                                                                                    
                                                                                                    
                                                                                                    
                                                                                                    
                                                                                                    
                                                                                                    
                                                                                                    
                                                                                                    
                                                                                                    
                                                                                                    
                                                                                                    
                                                                                                    
                                                                                                    
                                                                                                    
                                                                                                    
                           
<?xpacket end="w"?></metadata>
<defs>
    <style>
      .cls-1 {
        fill: #0988b9;
        fill-rule: evenodd;
      }
    </style>
  </defs>
  <path id="Shape_53_copy" data-name="Shape 53 copy" class="cls-1" d="M757.807,741.831l-16.41-.023a3.429,3.429,0,0,0-3.434,3.422l-0.014,10.338A3.428,3.428,0,0,0,741.373,759l16.409,0.022a3.427,3.427,0,0,0,3.435-3.422l0.015-10.338A3.428,3.428,0,0,0,757.807,741.831Zm-4.793,8.987s-0.015-.042-0.034-0.106a34.314,34.314,0,0,1-3.093,2.153,16.879,16.879,0,0,1-3.207-2.032l-0.016.054a90.2,90.2,0,0,0-7.037,7.122,44.451,44.451,0,0,1,6.567-7.561,31.678,31.678,0,0,1-6.55-7.422s6.364,7.513,10.231,8.774c0,0,3.368-1.1,9.919-9.168,0,0-1.388,3.674-6.351,7.71a44.36,44.36,0,0,1,6.759,7.445A90.316,90.316,0,0,0,753.014,750.818Z" transform="translate(-737.938 -741.813)"/>
</svg>
