<svg xmlns="http://www.w3.org/2000/svg" width="32.157" height="36.97" viewBox="0 0 32.157 36.97">
  <metadata><?xpacket begin="﻿" id="W5M0MpCehiHzreSzNTczkc9d"?>
<x:xmpmeta xmlns:x="adobe:ns:meta/" x:xmptk="Adobe XMP Core 5.6-c138 79.159824, 2016/09/14-01:09:01        ">
   <rdf:RDF xmlns:rdf="http://www.w3.org/1999/02/22-rdf-syntax-ns#">
      <rdf:Description rdf:about=""/>
   </rdf:RDF>
</x:xmpmeta>
                                                                                                    
                                                                                                    
                                                                                                    
                                                                                                    
                                                                                                    
                                                                                                    
                                                                                                    
                                                                                                    
                                                                                                    
                                                                                                    
                                                                                                    
                                                                                                    
                                                                                                    
                                                                                                    
                                                                                                    
                                                                                                    
                                                                                                    
                                                                                                    
                                                                                                    
                                                                                                    
                           
<?xpacket end="w"?></metadata>
<defs>
    <style>
      .cls-1 {
        fill: #2190c1;
        fill-rule: evenodd;
      }
    </style>
  </defs>
  <path class="cls-1" d="M968.016,2149.71a0.765,0.765,0,1,1,.765-0.77A0.766,0.766,0,0,1,968.016,2149.71Zm-4.121.5a1.265,1.265,0,1,1,1.263-1.27A1.266,1.266,0,0,1,963.9,2150.21Zm-4.12-.5a0.765,0.765,0,1,1,.766-0.77A0.765,0.765,0,0,1,959.775,2149.71Zm4.014-28.49a0.5,0.5,0,1,1-.5.5A0.5,0.5,0,0,1,963.789,2121.22Zm8.455,8.83v15.94H955.1v-22.44H966.76c0-.04,0-0.08,0-0.13v-3.6H955.689a1.638,1.638,0,0,0-1.177.49,1.663,1.663,0,0,0-.492,1.18v28.79a1.676,1.676,0,0,0,1.669,1.67h16.133a1.676,1.676,0,0,0,1.672-1.67v-21.35Zm12.719-6.63a2.167,2.167,0,0,1-2.162,2.17h-8.383l-3.84,3.44-0.021-3.33a2.161,2.161,0,0,1-1.926-2.15v-5.16a2.164,2.164,0,0,1,2.162-2.16H982.8a2.165,2.165,0,0,1,2.162,2.16v5.03Zm-2.162-8.41H970.793a3.384,3.384,0,0,0-3.375,3.38v5.16a3.391,3.391,0,0,0,1.932,3.06l0.033,5.11,5.5-4.92h7.92a3.377,3.377,0,0,0,3.373-3.38v-5.03A3.383,3.383,0,0,0,982.8,2115.01Zm-6.678,5.99a0.895,0.895,0,1,1-.894-0.89A0.895,0.895,0,0,1,976.123,2121Zm-3.037,0a0.895,0.895,0,1,1-.895-0.89A0.9,0.9,0,0,1,973.086,2121Zm6.076,0a0.9,0.9,0,1,1-.9-0.89A0.9,0.9,0,0,1,979.162,2121Zm3.037,0a0.895,0.895,0,1,1-.894-0.89A0.9,0.9,0,0,1,982.2,2121Z" transform="translate(-954.031 -2115)"/>
</svg>
