<svg xmlns="http://www.w3.org/2000/svg" width="32.937" height="24.41" viewBox="0 0 32.937 24.41">
  <metadata><?xpacket begin="﻿" id="W5M0MpCehiHzreSzNTczkc9d"?>
<x:xmpmeta xmlns:x="adobe:ns:meta/" x:xmptk="Adobe XMP Core 5.6-c138 79.159824, 2016/09/14-01:09:01        ">
   <rdf:RDF xmlns:rdf="http://www.w3.org/1999/02/22-rdf-syntax-ns#">
      <rdf:Description rdf:about=""/>
   </rdf:RDF>
</x:xmpmeta>
                                                                                                    
                                                                                                    
                                                                                                    
                                                                                                    
                                                                                                    
                                                                                                    
                                                                                                    
                                                                                                    
                                                                                                    
                                                                                                    
                                                                                                    
                                                                                                    
                                                                                                    
                                                                                                    
                                                                                                    
                                                                                                    
                                                                                                    
                                                                                                    
                                                                                                    
                                                                                                    
                           
<?xpacket end="w"?></metadata>
<defs>
    <style>
      .cls-1 {
        fill: #2190c1;
        fill-rule: evenodd;
      }
    </style>
  </defs>
  <path class="cls-1" d="M970.75,2196.05s-0.021-.06-0.049-0.15a47.247,47.247,0,0,1-4.373,3.05,24.217,24.217,0,0,1-4.535-2.87c-0.014.04-.023,0.07-0.023,0.07a126.583,126.583,0,0,0-9.95,10.09,62.622,62.622,0,0,1,9.285-10.71,45.008,45.008,0,0,1-9.261-10.51s9,10.64,14.467,12.42c0,0,4.761-1.56,14.027-12.98,0,0-1.963,5.2-8.982,10.92a62.922,62.922,0,0,1,9.56,10.54A129.594,129.594,0,0,0,970.75,2196.05Zm6.777-12.73-23.205-.03a4.856,4.856,0,0,0-4.855,4.85l-0.022,14.64a4.849,4.849,0,0,0,4.844,4.86l23.2,0.03a4.841,4.841,0,0,0,4.858-4.84l0.021-14.64A4.865,4.865,0,0,0,977.527,2183.32Z" transform="translate(-949.438 -2183.28)"/>
</svg>
