<svg xmlns="http://www.w3.org/2000/svg" width="22.5" height="27.75" viewBox="0 0 22.5 27.75">
  <metadata><?xpacket begin="﻿" id="W5M0MpCehiHzreSzNTczkc9d"?>
<x:xmpmeta xmlns:x="adobe:ns:meta/" x:xmptk="Adobe XMP Core 5.6-c138 79.159824, 2016/09/14-01:09:01        ">
   <rdf:RDF xmlns:rdf="http://www.w3.org/1999/02/22-rdf-syntax-ns#">
      <rdf:Description rdf:about=""/>
   </rdf:RDF>
</x:xmpmeta>
                                                                                                    
                                                                                                    
                                                                                                    
                                                                                                    
                                                                                                    
                                                                                                    
                                                                                                    
                                                                                                    
                                                                                                    
                                                                                                    
                                                                                                    
                                                                                                    
                                                                                                    
                                                                                                    
                                                                                                    
                                                                                                    
                                                                                                    
                                                                                                    
                                                                                                    
                                                                                                    
                           
<?xpacket end="w"?></metadata>
<defs>
    <style>
      .cls-1 {
        fill: #0988b9;
        fill-rule: evenodd;
      }
    </style>
  </defs>
  <path id="Shape_55_copy" data-name="Shape 55 copy" class="cls-1" d="M744.919,647.575c-0.763.808,0.032,1.9,0.923,2.937a27.22,27.22,0,0,0,3.982,3.743c1.9,1.455,2.89,2.092,3.62,1.321l5.535,5.2c-0.864.952-6,2.866-14.286-5.117-7.865-7.573-6.225-12.391-5.452-13.415Zm16,11.227a1.479,1.479,0,0,0,.019-1.2v0l-4.379-4.054a0.881,0.881,0,0,0-1.221.038l-1.491,1.564,5.542,5.218s1.5-1.56,1.5-1.562Zm-13.9-13.217c0.284-.36,0-0.888-0.568-1.194v-0.006s-4.288-4.17-4.29-4.17a0.753,0.753,0,0,0-1.115.036l-1.438,1.565,5.8,5.333s1.607-1.558,1.607-1.561v0Zm-3.072-6.241,1.061-4.712a0.576,0.576,0,1,0-1.123-.253l-1.061,4.712A0.576,0.576,0,0,0,743.949,639.344Zm4.107,3.348,4.252-2.3a0.576,0.576,0,0,0-.549-1.012l-4.251,2.3a0.575,0.575,0,0,0,.524,1.023Zm-1.785-1.74,2.813-3.928a0.576,0.576,0,0,0-.937-0.67l-2.812,3.929a0.576,0.576,0,0,0,.72.852A0.563,0.563,0,0,0,746.271,640.952Z" transform="translate(-738.563 -633.938)"/>
</svg>
