<svg id="twitter_2" data-name="twitter 2" xmlns="http://www.w3.org/2000/svg" width="42.656" height="43.34" viewBox="0 0 42.656 43.34">
  <metadata><?xpacket begin="﻿" id="W5M0MpCehiHzreSzNTczkc9d"?>
<x:xmpmeta xmlns:x="adobe:ns:meta/" x:xmptk="Adobe XMP Core 5.6-c138 79.159824, 2016/09/14-01:09:01        ">
   <rdf:RDF xmlns:rdf="http://www.w3.org/1999/02/22-rdf-syntax-ns#">
      <rdf:Description rdf:about=""/>
   </rdf:RDF>
</x:xmpmeta>
                                                                                                    
                                                                                                    
                                                                                                    
                                                                                                    
                                                                                                    
                                                                                                    
                                                                                                    
                                                                                                    
                                                                                                    
                                                                                                    
                                                                                                    
                                                                                                    
                                                                                                    
                                                                                                    
                                                                                                    
                                                                                                    
                                                                                                    
                                                                                                    
                                                                                                    
                                                                                                    
                           
<?xpacket end="w"?></metadata>
<defs>
    <style>
      .cls-1 {
        fill: #00acf0;
      }

      .cls-1, .cls-2, .cls-3 {
        fill-rule: evenodd;
      }

      .cls-2 {
        fill: #2a8ebc;
        opacity: 0.9;
        mix-blend-mode: multiply;
      }

      .cls-3 {
        fill: #f4f4f4;
      }
    </style>
  </defs>
  <path id="Shape_163_copy_5" data-name="Shape 163 copy 5" class="cls-1" d="M749.338,1220.65a21.275,21.275,0,1,1-21.314,21.28A21.3,21.3,0,0,1,749.338,1220.65Z" transform="translate(-728 -1220.66)"/>
  <path id="Shape_9_copy_2" data-name="Shape 9 copy 2" class="cls-2" d="M754.678,1245.48l-3.318-.65,1.523-3.44,1.352-7.75H751.68l-8.517,5.52-3.785-4.87s-9.829,9.52-12.931,12.56L724,1264.03l2.343,12.96c3.308-3.24,23.238-23.24,29.708-29.7Z" transform="translate(-728 -1220.66)"/>
  <path id="Shape_164_copy" data-name="Shape 164 copy" class="cls-3" d="M739.412,1233.69a13.108,13.108,0,0,0,9.912,5.02s-0.548-4.27,3.137-5.58c0,0,3.138-1.31,5.23,1.16,0,0,2.44-.4,2.988-1.16a3.879,3.879,0,0,1-1.843,2.62,6.338,6.338,0,0,0,2.64-.61,12.182,12.182,0,0,1-2.208,2.25c-0.012.01-.022,0.01-0.033,0.02-0.648.25,0.7,4.62-3.337,9.8a14.006,14.006,0,0,1-8.766,4.98,11.445,11.445,0,0,1-9.164-2.01,10.384,10.384,0,0,0,6.973-2.16s-3.586-.31-4.433-3.32c0,0,1.644,0,1.992-.05,0,0-3.835-1.31-3.785-5.01a5.587,5.587,0,0,0,2.017.51A5.2,5.2,0,0,1,739.412,1233.69Z" transform="translate(-728 -1220.66)"/>
</svg>
