<svg id="vimeo" xmlns="http://www.w3.org/2000/svg" width="42.625" height="43.34" viewBox="0 0 42.625 43.34">
  <metadata><?xpacket begin="﻿" id="W5M0MpCehiHzreSzNTczkc9d"?>
<x:xmpmeta xmlns:x="adobe:ns:meta/" x:xmptk="Adobe XMP Core 5.6-c138 79.159824, 2016/09/14-01:09:01        ">
   <rdf:RDF xmlns:rdf="http://www.w3.org/1999/02/22-rdf-syntax-ns#">
      <rdf:Description rdf:about=""/>
   </rdf:RDF>
</x:xmpmeta>
                                                                                                    
                                                                                                    
                                                                                                    
                                                                                                    
                                                                                                    
                                                                                                    
                                                                                                    
                                                                                                    
                                                                                                    
                                                                                                    
                                                                                                    
                                                                                                    
                                                                                                    
                                                                                                    
                                                                                                    
                                                                                                    
                                                                                                    
                                                                                                    
                                                                                                    
                                                                                                    
                           
<?xpacket end="w"?></metadata>
<defs>
    <style>
      .cls-1 {
        fill: #20b6ff;
      }

      .cls-2, .cls-3 {
        fill: #3f95bf;
        mix-blend-mode: multiply;
      }

      .cls-2, .cls-3, .cls-4 {
        fill-rule: evenodd;
      }

      .cls-2 {
        opacity: 0.9;
      }

      .cls-3 {
        opacity: 0.5;
      }

      .cls-4 {
        fill: #f4f4f4;
      }
    </style>
  </defs>
  <circle id="Shape_163_copy_3" data-name="Shape 163 copy 3" class="cls-1" cx="21.313" cy="21.265" r="21.313"/>
  <path class="cls-2" d="M905.706,1247.13l-2.822-.44-2.828-7.06-0.311-2.03s-0.906-4.35-3.581-1.74c-4.237,4.14-10.517,10.27-14.687,14.35l-6.066,9.69,8.174,14.82c3.6-3.51,17.577-17.42,24.61-24.43Z" transform="translate(-884.969 -1220.66)"/>
  <path class="cls-3" d="M907.045,1237.51l-2.614,3.93,1.345,4.67,3.049-.81,2.465-4.14-0.064-4.37-3.637.12Z" transform="translate(-884.969 -1220.66)"/>
  <path id="Shape_13_copy" data-name="Shape 13 copy" class="cls-4" d="M894.357,1237.72l0.924,1.21s1.907-1.5,2.542-.75,3.061,9.8,3.871,11.47c0.706,1.46,2.656,3.4,4.794,2.02s9.241-7.44,10.513-14.58-8.55-5.65-9.59.57c2.6-1.55,3.988.64,2.657,3.12s-2.541,4.09-3.177,4.09-1.122-1.66-1.848-4.56c-0.752-2.99-.747-8.39-3.87-7.77C898.228,1233.11,894.357,1237.72,894.357,1237.72Z" transform="translate(-884.969 -1220.66)"/>
</svg>
