<svg id="youtube" xmlns="http://www.w3.org/2000/svg" width="42.844" height="43.34" viewBox="0 0 42.844 43.34">
  <metadata><?xpacket begin="﻿" id="W5M0MpCehiHzreSzNTczkc9d"?>
<x:xmpmeta xmlns:x="adobe:ns:meta/" x:xmptk="Adobe XMP Core 5.6-c138 79.159824, 2016/09/14-01:09:01        ">
   <rdf:RDF xmlns:rdf="http://www.w3.org/1999/02/22-rdf-syntax-ns#">
      <rdf:Description rdf:about=""/>
   </rdf:RDF>
</x:xmpmeta>
                                                                                                    
                                                                                                    
                                                                                                    
                                                                                                    
                                                                                                    
                                                                                                    
                                                                                                    
                                                                                                    
                                                                                                    
                                                                                                    
                                                                                                    
                                                                                                    
                                                                                                    
                                                                                                    
                                                                                                    
                                                                                                    
                                                                                                    
                                                                                                    
                                                                                                    
                                                                                                    
                           
<?xpacket end="w"?></metadata>
<defs>
    <style>
      .cls-1 {
        fill: #eb5350;
      }

      .cls-1, .cls-2, .cls-3 {
        fill-rule: evenodd;
      }

      .cls-2 {
        fill: #c24441;
        opacity: 0.9;
        mix-blend-mode: multiply;
      }

      .cls-3 {
        fill: #f4f4f4;
      }
    </style>
  </defs>
  <path id="Shape_163_copy_2" data-name="Shape 163 copy 2" class="cls-1" d="M854.523,1220.65a21.275,21.275,0,1,1-21.314,21.28A21.3,21.3,0,0,1,854.523,1220.65Z" transform="translate(-833 -1220.66)"/>
  <path class="cls-2" d="M850.38,1236.14c1.517-1.39,2.56-2.35,2.56-2.35l1.264-.49,2.174,1.3,1.437-1.58,1.09,1.03,1.475-1,1.207,6.42-3.627,2.18,6.98,2.7-0.226,3.7s2.219,2.66.731,4.15c-6.952,6.92-18.688,18.6-21.863,21.7l-18.208-14.01,5.733-13.04c4.982-4.87,13.151-12.85,16.577-16.2,0,0,1.041,0,1.411,1.9C849.168,1232.92,850.38,1236.14,850.38,1236.14Z" transform="translate(-833 -1220.66)"/>
  <path id="Shape_11_copy" data-name="Shape 11 copy" class="cls-3" d="M863.915,1241.05h-18.4a3.009,3.009,0,0,0-3,3v5.61a3.007,3.007,0,0,0,3,2.99h18.4a3.007,3.007,0,0,0,3-2.99v-5.61A3.009,3.009,0,0,0,863.915,1241.05Zm-13.46,1.75h-4.138v1.18h1.395v6.92h1.348v-6.92h1.4v-1.18Zm2.747,6.66a1.526,1.526,0,0,1-.372.32,0.74,0.74,0,0,1-.333.13,0.311,0.311,0,0,1-.246-0.1,0.5,0.5,0,0,1-.074-0.31v-4.58h-1.2v5a1.3,1.3,0,0,0,.21.8,0.737,0.737,0,0,0,.626.26,1.434,1.434,0,0,0,.693-0.19,2.49,2.49,0,0,0,.692-0.55v0.66h1.2v-5.98h-1.2v4.54Zm5.236-4.23a1.045,1.045,0,0,0-.866-0.38,1.245,1.245,0,0,0-.553.14,2.009,2.009,0,0,0-.513.42v-2.61H855.3v8.1h1.209v-0.46a1.483,1.483,0,0,0,.513.4,1.384,1.384,0,0,0,.625.13,0.985,0.985,0,0,0,.813-0.34,1.469,1.469,0,0,0,.282-0.97v-3.31A1.8,1.8,0,0,0,858.438,1245.23Zm-0.933,4.27a0.644,0.644,0,0,1-.1.41,0.409,0.409,0,0,1-.323.13,0.722,0.722,0,0,1-.288-0.07,0.924,0.924,0,0,1-.285-0.21v-3.72a0.937,0.937,0,0,1,.248-0.18,0.576,0.576,0,0,1,.253-0.06,0.468,0.468,0,0,1,.372.15,0.724,0.724,0,0,1,.126.46v3.09Zm5.382-1.45v-1.52a1.776,1.776,0,0,0-.44-1.3,1.691,1.691,0,0,0-1.264-.45,1.828,1.828,0,0,0-1.309.48,1.7,1.7,0,0,0-.51,1.27v2.68a1.915,1.915,0,0,0,.464,1.36,1.641,1.641,0,0,0,1.266.49,1.778,1.778,0,0,0,1.342-.46,1.928,1.928,0,0,0,.451-1.39v-0.3h-1.23v0.27a1.263,1.263,0,0,1-.12.68,0.5,0.5,0,0,1-.415.15,0.45,0.45,0,0,1-.406-0.18,1.277,1.277,0,0,1-.117-0.65v-1.13h2.288Zm-2.288-1.53a0.9,0.9,0,0,1,.123-0.54,0.481,0.481,0,0,1,.411-0.16,0.463,0.463,0,0,1,.4.16,0.917,0.917,0,0,1,.126.54v0.6H860.6v-0.6Zm-9.7-10.68v3.7h-1.516v-3.53l-1.806-5.38h1.528l0.984,3.56h0.1l0.937-3.56h1.543Zm5.784,2.06a1.712,1.712,0,0,1-.522,1.33,2.058,2.058,0,0,1-1.443.48,2,2,0,0,1-1.415-.5,1.732,1.732,0,0,1-.53-1.33v-3.41a1.5,1.5,0,0,1,.545-1.22,2.22,2.22,0,0,1,1.461-.45,1.982,1.982,0,0,1,1.373.48,1.555,1.555,0,0,1,.531,1.23v3.39Zm4.938,1.64h-1.349v-0.72a2.966,2.966,0,0,1-.774.61,1.685,1.685,0,0,1-.781.21,0.844,0.844,0,0,1-.705-0.3,1.384,1.384,0,0,1-.236-0.88v-5.5h1.345v5.05a0.519,0.519,0,0,0,.088.33,0.33,0.33,0,0,0,.273.11,0.816,0.816,0,0,0,.377-0.14,1.787,1.787,0,0,0,.413-0.35v-5h1.349v6.58Zm-6.907-5.6a0.583,0.583,0,0,0-.4.13,0.436,0.436,0,0,0-.154.35V1238a0.586,0.586,0,0,0,.144.42,0.541,0.541,0,0,0,.41.15,0.613,0.613,0,0,0,.435-0.15,0.54,0.54,0,0,0,.162-0.42v-3.58a0.422,0.422,0,0,0-.165-0.35A0.659,0.659,0,0,0,854.717,1233.94Z" transform="translate(-833 -1220.66)"/>
</svg>
